<?xml version="1.0" encoding="iso-8859-1"?>
<!-- Generator: Adobe Illustrator 19.0.0, SVG Export Plug-In . SVG Version: 6.00 Build 0)  -->
<svg version="1.1" id="Capa_1" xmlns="http://www.w3.org/2000/svg" xmlns:xlink="http://www.w3.org/1999/xlink" x="0px" y="0px"
	 viewBox="0 0 512 512" style="enable-background:new 0 0 512 512;" xml:space="preserve">
<g>
	<path style="fill:#FF4A4A;" d="M91.22,279.566c-49.983,0-90.648,40.665-90.648,90.648c0,72.781,82.557,137.502,86.072,140.221
		c1.348,1.043,2.963,1.564,4.577,1.564c1.614,0,3.229-0.522,4.577-1.564c3.514-2.719,86.071-67.44,86.071-140.221
		C181.868,320.232,141.203,279.566,91.22,279.566z M91.22,337.043c18.32,0,33.172,14.851,33.172,33.172
		c0,18.32-14.851,33.172-33.172,33.172s-33.172-14.851-33.172-33.172C58.048,351.895,72.899,337.043,91.22,337.043z"/>
	<path style="fill:#FF4A4A;" d="M425.09,111.652c-47.607,0-86.338,38.731-86.338,86.338c0,29.309,13.853,60.714,41.174,93.344
		c20.004,23.891,39.755,39.272,40.587,39.916c1.348,1.043,2.963,1.564,4.577,1.564s3.229-0.522,4.577-1.564
		c0.832-0.643,20.584-16.025,40.587-39.916c27.321-32.631,41.174-64.037,41.174-93.344
		C511.428,150.383,472.697,111.652,425.09,111.652z M425.09,166.536c17.371,0,31.452,14.082,31.452,31.452
		s-14.081,31.452-31.452,31.452s-31.452-14.082-31.452-31.452S407.719,166.536,425.09,166.536z"/>
	<path style="fill:#FF4A4A;" d="M117.089,0c-43.732,0-79.31,35.579-79.31,79.311c0,26.857,12.67,55.608,37.66,85.455
		c18.267,21.817,36.314,35.87,37.074,36.457c1.348,1.043,2.963,1.564,4.577,1.564s3.23-0.522,4.577-1.564
		c0.76-0.588,18.806-14.642,37.074-36.457c24.991-29.847,37.661-58.598,37.661-85.454C196.4,35.579,160.821,0,117.089,0z
		 M117.089,50.661c15.822,0,28.649,12.827,28.649,28.65c0,15.822-12.827,28.649-28.649,28.649S88.44,95.134,88.44,79.312
		C88.44,63.488,101.267,50.661,117.089,50.661z"/>
</g>
<g>
	<path style="fill:#E7343F;" d="M91.22,279.566c-4.744,0-9.404,0.368-13.953,1.074c43.383,6.731,76.696,44.335,76.696,89.574
		c0,59.026-54.296,112.746-76.696,132.396c5.22,4.579,8.711,7.311,9.376,7.826c1.348,1.043,2.963,1.564,4.577,1.564
		c1.614,0,3.229-0.522,4.577-1.564c3.514-2.719,86.071-67.44,86.071-140.221C181.868,320.232,141.203,279.566,91.22,279.566z"/>
	<path style="fill:#E7343F;" d="M425.09,111.652c-4.75,0-9.41,0.392-13.953,1.133c40.996,6.69,72.385,42.348,72.385,85.205
		c0,29.309-13.853,60.714-41.174,93.344c-11.755,14.039-23.419,25.135-31.211,32.034c5.468,4.84,9.033,7.617,9.376,7.882
		c1.348,1.043,2.963,1.564,4.577,1.564s3.229-0.522,4.577-1.564c0.832-0.643,20.584-16.025,40.587-39.916
		c27.321-32.631,41.174-64.037,41.174-93.344C511.428,150.383,472.697,111.652,425.09,111.652z"/>
	<path style="fill:#E7343F;" d="M117.089,0c-4.762,0-9.419,0.446-13.953,1.254c37.098,6.614,65.358,39.087,65.358,78.057
		c0,26.857-12.67,55.608-37.661,85.455c-10.334,12.342-20.595,22.197-27.698,28.537c5.453,4.867,9.046,7.665,9.376,7.921
		c1.348,1.043,2.963,1.564,4.577,1.564c1.614,0,3.23-0.522,4.577-1.564c0.76-0.588,18.806-14.642,37.074-36.457
		c24.991-29.847,37.661-58.598,37.661-85.454C196.4,35.579,160.821,0,117.089,0z"/>
</g>
<g>
	<path style="fill:#1EA4E9;" d="M397.954,329.891c-1,0-2.017-0.201-2.992-0.628l-9.137-3.995c-3.785-1.654-5.512-6.064-3.857-9.848
		c1.654-3.784,6.066-5.511,9.848-3.857l9.137,3.995c3.785,1.654,5.512,6.064,3.857,9.848
		C403.583,328.215,400.835,329.891,397.954,329.891z M361.405,313.915c-1,0-2.017-0.201-2.993-0.628l-9.136-3.995
		c-3.784-1.654-5.51-6.064-3.856-9.849c1.655-3.784,6.062-5.51,9.849-3.856l9.136,3.995c3.784,1.654,5.51,6.064,3.856,9.849
		C367.034,312.239,364.287,313.915,361.405,313.915z M324.857,297.938c-1,0-2.015-0.201-2.992-0.628l-9.137-3.994
		c-3.784-1.653-5.511-6.063-3.857-9.848c1.653-3.784,6.06-5.512,9.848-3.857l9.137,3.994c3.784,1.653,5.512,6.063,3.857,9.848
		C330.486,296.261,327.74,297.938,324.857,297.938z M288.309,281.96c-1,0-2.015-0.201-2.992-0.628l-9.137-3.994
		c-3.784-1.653-5.512-6.063-3.857-9.848c1.653-3.784,6.06-5.513,9.848-3.857l9.137,3.994c3.784,1.653,5.511,6.063,3.857,9.848
		C293.938,280.284,291.192,281.96,288.309,281.96z M251.761,265.984c-1,0-2.017-0.201-2.992-0.628l-9.137-3.995
		c-3.785-1.654-5.511-6.064-3.857-9.848c1.654-3.784,6.065-5.512,9.848-3.857l9.137,3.995c3.785,1.654,5.511,6.064,3.857,9.848
		C257.389,264.308,254.642,265.984,251.761,265.984z M215.212,250.007c-1,0-2.017-0.201-2.993-0.628l-9.136-3.995
		c-3.784-1.654-5.51-6.064-3.856-9.849c1.654-3.782,6.062-5.511,9.849-3.856l9.136,3.995c3.784,1.654,5.51,6.064,3.856,9.849
		C220.84,248.331,218.094,250.007,215.212,250.007z M178.665,234.03c-1,0-2.015-0.201-2.992-0.628l-9.137-3.994
		c-3.784-1.653-5.511-6.063-3.857-9.848c1.654-3.784,6.059-5.511,9.848-3.857l9.137,3.994c3.784,1.653,5.511,6.063,3.857,9.848
		C184.294,232.354,181.548,234.03,178.665,234.03z M142.117,218.053c-1,0-2.015-0.201-2.992-0.628l-9.137-3.994
		c-3.784-1.653-5.511-6.063-3.857-9.848c1.653-3.784,6.059-5.512,9.848-3.857l9.137,3.994c3.784,1.653,5.511,6.063,3.857,9.848
		C147.745,216.377,144.998,218.053,142.117,218.053z"/>
	<path style="fill:#1EA4E9;" d="M121.479,506.92c-2.675,0-5.261-1.438-6.607-3.964c-1.942-3.645-0.561-8.175,3.083-10.117l8.8-4.69
		c3.647-1.943,8.176-0.561,10.119,3.083c1.942,3.645,0.561,8.175-3.083,10.118l-8.8,4.69
		C123.87,506.637,122.665,506.92,121.479,506.92z M156.679,488.158c-2.675,0-5.261-1.438-6.607-3.964
		c-1.942-3.645-0.562-8.175,3.083-10.119l8.8-4.69c3.646-1.942,8.176-0.561,10.118,3.083c1.942,3.645,0.561,8.175-3.083,10.119
		l-8.8,4.69C159.07,487.875,157.865,488.158,156.679,488.158z M191.878,469.397c-2.675,0-5.261-1.438-6.607-3.964
		c-1.942-3.645-0.561-8.175,3.083-10.118l8.8-4.69c3.646-1.943,8.175-0.562,10.118,3.083c1.942,3.645,0.561,8.175-3.083,10.118
		l-8.8,4.69C194.269,469.114,193.064,469.397,191.878,469.397z M227.078,450.635c-2.675,0-5.261-1.438-6.607-3.964
		c-1.942-3.645-0.561-8.175,3.083-10.119l8.8-4.69c3.647-1.943,8.176-0.561,10.118,3.083c1.942,3.645,0.561,8.175-3.083,10.118
		l-8.8,4.69C229.469,450.352,228.264,450.635,227.078,450.635z M262.279,431.873c-2.674,0-5.261-1.437-6.606-3.963
		c-1.943-3.645-0.562-8.174,3.082-10.118l8.799-4.69c3.644-1.946,8.175-0.562,10.117,3.082c1.943,3.645,0.562,8.174-3.082,10.118
		l-8.799,4.69C264.67,431.59,263.465,431.873,262.279,431.873z M297.478,413.112c-2.674,0-5.261-1.438-6.606-3.964
		c-1.943-3.645-0.562-8.174,3.082-10.118l8.799-4.69c3.644-1.945,8.176-0.562,10.118,3.082c1.943,3.645,0.562,8.174-3.082,10.117
		l-8.799,4.69C299.87,412.828,298.665,413.112,297.478,413.112z M332.678,394.35c-2.674,0-5.261-1.438-6.606-3.964
		c-1.943-3.645-0.562-8.174,3.082-10.118l8.799-4.69c3.645-1.947,8.175-0.563,10.118,3.082c1.943,3.645,0.562,8.175-3.082,10.118
		l-8.799,4.69C335.069,394.067,333.865,394.35,332.678,394.35z M367.878,375.589c-2.675,0-5.261-1.438-6.607-3.964
		c-1.942-3.645-0.561-8.175,3.083-10.118l8.8-4.69c3.646-1.943,8.176-0.562,10.118,3.083c1.942,3.646,0.562,8.175-3.083,10.118
		l-8.8,4.69C370.269,375.305,369.065,375.589,367.878,375.589z M403.078,356.827c-2.675,0-5.261-1.438-6.607-3.964
		c-1.942-3.645-0.562-8.175,3.083-10.118l8.8-4.69c3.646-1.942,8.175-0.561,10.118,3.083c1.942,3.645,0.562,8.175-3.083,10.118
		l-8.8,4.69C405.468,356.544,404.264,356.827,403.078,356.827z"/>
</g>
<g>
</g>
<g>
</g>
<g>
</g>
<g>
</g>
<g>
</g>
<g>
</g>
<g>
</g>
<g>
</g>
<g>
</g>
<g>
</g>
<g>
</g>
<g>
</g>
<g>
</g>
<g>
</g>
<g>
</g>
</svg>
